<?xml version="1.0" encoding="utf-8"?>
<!-- Generator: Adobe Illustrator 18.1.1, SVG Export Plug-In . SVG Version: 6.00 Build 0)  -->
<svg version="1.1" xmlns="http://www.w3.org/2000/svg" xmlns:xlink="http://www.w3.org/1999/xlink" x="0px" y="0px"
	 viewBox="0 0 1241.7 1479.2" enable-background="new 0 0 1241.7 1479.2" xml:space="preserve">
<g id="fond" display="none">
	<rect x="-506.6" y="-387.7" display="inline" fill="#434343" width="2441.5" height="2318.1"/>
</g>
<g id="Calque_1">
	<g>
		<g>
			<defs>
				<path id="SVGID_1_" d="M964.1,579.4c-6.9-3.8-13-7.2-21.2-11.7c-21.5,40.8-42.8,81.1-64.2,121.7c-27.3-28-28.7-38.2-11.6-70.1
					c23.4-43.8,46.5-87.8,70.6-133.3c-6.9-3.9-13.3-7.5-21.2-11.9c-19.3,36.4-37.8,71.5-56.5,106.4c-6.2,11.7-11.8,24-19.7,34.5
					c-6.2,8.2-15.6,14-25.6,19.5c0.2-33.1-8-65,11.1-95.7c18.3-29.4,31.6-62,48.2-92.6c2.9-5.3,11.3-10.4,17.3-10.5
					c35.4-1,70.8-0.8,106.2-0.5c20,0.1,34.2,11.8,34.3,30.7c0.5,73.6,0.1,147.2-0.1,220.7c0,1-0.9,1.9-2.3,4.6h-89
					c-6.3,20.6-11.9,39.1-18.1,59.4c-24.6-22-27.8-38.5-15.1-62.7C926.1,652,944.8,616.4,964.1,579.4"/>
			</defs>
			<use xlink:href="#SVGID_1_"  overflow="visible" fill-rule="evenodd" clip-rule="evenodd" fill="#FCFCFC"/>
			<clipPath id="SVGID_2_">
				<use xlink:href="#SVGID_1_"  overflow="visible"/>
			</clipPath>
			<g clip-path="url(#SVGID_2_)">
				<defs>
					<rect id="SVGID_3_" x="-487.9" y="-54.4" width="2227.2" height="1573.9"/>
				</defs>
				<use xlink:href="#SVGID_3_"  overflow="visible" fill="#FCFCFC"/>
				<clipPath id="SVGID_4_">
					<use xlink:href="#SVGID_3_"  overflow="visible"/>
				</clipPath>
				<rect x="812.2" y="433.8" clip-path="url(#SVGID_4_)" fill="#FCFCFC" width="221" height="317.6"/>
			</g>
		</g>
		<g>
			<defs>
				<path id="SVGID_5_" d="M378.5,690.6c-21.9-41.6-42.9-81.6-64.7-123c-7.4,4.1-13.8,7.6-21.1,11.7c18.4,35.4,36.2,69.6,54,103.8
					c14.9,28.7,13.7,38.9-8.2,64.6c-16-14.8-17.5-34.6-18.8-56h-93.5c-0.7-5.3-1.5-8.9-1.5-12.6c-0.1-68.6-0.1-137.1,0-205.7
					c0-27,11.2-38.2,38.2-38.3c34.3-0.2,68.6-0.5,102.9,0.4c5.6,0.1,13.5,4.8,16.1,9.7c20.3,38,39.6,76.6,59.1,115
					c1.2,2.4,3,5,3.1,7.6c0.2,21.9,0.1,43.7,0.1,65.6c-1.5,1.1-3,2.1-4.6,3.2c-8.6-8.4-19.6-15.4-25.3-25.5
					c-23.8-41.7-45.9-84.4-68.7-126.7c-1.5-2.9-3.2-5.7-5.6-10c-7.1,3.9-13.6,7.4-21,11.5c22.8,43.3,45,85.7,67.4,128.1
					C406.8,652.5,406.9,652.4,378.5,690.6"/>
			</defs>
			<use xlink:href="#SVGID_5_"  overflow="visible" fill-rule="evenodd" clip-rule="evenodd" fill="#FFFFFF"/>
			<clipPath id="SVGID_6_">
				<use xlink:href="#SVGID_5_"  overflow="visible"/>
			</clipPath>
			<g clip-path="url(#SVGID_6_)">
				<defs>
					<rect id="SVGID_7_" x="-487.9" y="-54.4" width="2227.2" height="1573.9"/>
				</defs>
				<use xlink:href="#SVGID_7_"  overflow="visible" fill="#FFFFFF"/>
				<clipPath id="SVGID_8_">
					<use xlink:href="#SVGID_7_"  overflow="visible"/>
				</clipPath>
				<rect x="223.7" y="433.8" clip-path="url(#SVGID_8_)" fill="#FFFFFF" width="221.6" height="314.8"/>
			</g>
		</g>
		<g>
			<g>
				<g enable-background="new    ">
					<g>
						<g>
							<defs>
								<path id="SVGID_9_" d="M911.2,783.3c27.3-14.2,36.3-26.6,49.4-67.4h69c15.4,56.1-16.8,89.9-72.4,97.1
									c-18,2.3-39.1-2.7-55.7-10.7c-64.3-30.8-127.1-64.7-190.9-96.3c-14-6.9-16.1-15.6-7.1-25c8.1-8.5,19.6-17.5,30.5-18.8
									c28.4-3.5,57.2-3.2,85.9-3.4c4,0,9.1,5.1,11.9,9.1c22.1,31.8,43.8,63.8,65.7,95.8C901.7,769.9,906.2,776.2,911.2,783.3"/>
							</defs>
							<use xlink:href="#SVGID_9_"  overflow="visible" fill-rule="evenodd" clip-rule="evenodd" fill="#FFFFFF"/>
							<clipPath id="SVGID_10_">
								<use xlink:href="#SVGID_9_"  overflow="visible"/>
							</clipPath>
							<g clip-path="url(#SVGID_10_)">
								<defs>
									<rect id="SVGID_11_" x="697.8" y="658.6" width="335.8" height="155.1"/>
								</defs>
								<use xlink:href="#SVGID_11_"  overflow="visible" fill="#FFFFFF"/>
								<clipPath id="SVGID_12_">
									<use xlink:href="#SVGID_11_"  overflow="visible"/>
								</clipPath>
								<rect x="697" y="657.7" clip-path="url(#SVGID_12_)" fill="#FFFFFF" width="337.5" height="156.8"/>
							</g>
						</g>
					</g>
				</g>
			</g>
		</g>
		<g>
			<g>
				<g enable-background="new    ">
					<g>
						<g>
							<defs>
								<path id="SVGID_13_" d="M226.4,715.1c21.2,0,41.7-0.6,62,0.5c3.8,0.2,9.2,6.4,10.6,10.8c7.7,24.8,21.5,44.3,46.2,57.5
									c22.2-32.4,44.8-63.7,65.4-96.3c12.1-19.1,22.8-33.2,49.8-27.2c18.9,4.3,39.7-0.3,59.6,1c8.7,0.6,18.8,3.9,25.4,9.3
									c18.5,15.1,16.2,26.9-4.7,37.5c-61.6,31.3-123.1,62.7-184.6,94.2c-19.3,9.9-39.9,15.1-61,10.5
									C252.5,803.9,213.3,782.5,226.4,715.1"/>
							</defs>
							<use xlink:href="#SVGID_13_"  overflow="visible" fill-rule="evenodd" clip-rule="evenodd" fill="#FFFFFF"/>
							<clipPath id="SVGID_14_">
								<use xlink:href="#SVGID_13_"  overflow="visible"/>
							</clipPath>
							<g clip-path="url(#SVGID_14_)">
								<defs>
									<rect id="SVGID_15_" x="223.8" y="659" width="334.3" height="155.9"/>
								</defs>
								<use xlink:href="#SVGID_15_"  overflow="visible" fill="#FFFFFF"/>
								<clipPath id="SVGID_16_">
									<use xlink:href="#SVGID_15_"  overflow="visible"/>
								</clipPath>
								<rect x="222.9" y="658.1" clip-path="url(#SVGID_16_)" fill="#FFFFFF" width="336.1" height="157.7"/>
							</g>
						</g>
					</g>
				</g>
			</g>
		</g>
		<g>
			<defs>
				<path id="SVGID_17_" d="M988.5,377.7H871.3v-50c-7.7,0-13.5,0-19.4,0c-46.5,0-93,0.3-139.5-0.3c-8.3-0.1-17.9-2.6-24.5-7.2
					c-5.5-3.9-9.1-12.4-10.2-19.3c-0.4-2.4,9.3-6.9,14.8-9.5c56.2-26.8,116.3-13.6,174.9-16.3c3.4-0.2,7.6,1.9,10.3,4.2
					C913.6,310.9,949.4,342.9,988.5,377.7"/>
			</defs>
			<use xlink:href="#SVGID_17_"  overflow="visible" fill-rule="evenodd" clip-rule="evenodd" fill="#FFFFFF"/>
			<clipPath id="SVGID_18_">
				<use xlink:href="#SVGID_17_"  overflow="visible"/>
			</clipPath>
			<g clip-path="url(#SVGID_18_)">
				<defs>
					<rect id="SVGID_19_" x="-487.9" y="-54.4" width="2227.2" height="1573.9"/>
				</defs>
				<use xlink:href="#SVGID_19_"  overflow="visible" fill="#FFFFFF"/>
				<clipPath id="SVGID_20_">
					<use xlink:href="#SVGID_19_"  overflow="visible"/>
				</clipPath>
				<rect x="676.7" y="273" clip-path="url(#SVGID_20_)" fill="#FFFFFF" width="312.8" height="105.7"/>
			</g>
		</g>
		<g>
			<g>
				<g enable-background="new    ">
					<g>
						<g>
							<defs>
								<path id="SVGID_21_" d="M386,333.5v49.4H269.5c16.2-14.6,30.6-27.8,45.2-40.8c20.7-18.4,41.2-36.9,62.4-54.7
									c4.5-3.8,11.5-6.4,17.4-6.5c37.6-0.6,75.5-2.8,112.9,0.6c24.7,2.2,48.6,12.8,72.4,19.5c-2.2,22.9-12.4,32.3-33.6,32.4
									c-47.1,0.2-94.1,0.1-141.2,0.1C399.4,333.5,393.9,333.5,386,333.5"/>
							</defs>
							<use xlink:href="#SVGID_21_"  overflow="visible" fill-rule="evenodd" clip-rule="evenodd" fill="#FFFFFF"/>
							<clipPath id="SVGID_22_">
								<use xlink:href="#SVGID_21_"  overflow="visible"/>
							</clipPath>
							<g clip-path="url(#SVGID_22_)">
								<defs>
									<rect id="SVGID_23_" x="269.3" y="279.6" width="310.6" height="103.3"/>
								</defs>
								<use xlink:href="#SVGID_23_"  overflow="visible" fill="#FFFFFF"/>
								<clipPath id="SVGID_24_">
									<use xlink:href="#SVGID_23_"  overflow="visible"/>
								</clipPath>
								<rect x="268.5" y="278.7" clip-path="url(#SVGID_24_)" fill="#FFFFFF" width="312.2" height="105.2"/>
							</g>
						</g>
					</g>
				</g>
			</g>
		</g>
		<g>
			<path fill="#FFFFFF" d="M166.8,950.7H278v33.2h-75.1v30.6h71v33.2h-71v33.4h79.3v33.2H166.8V950.7z"/>
		</g>
		<g>
			<path fill="#FFFFFF" d="M329.4,995.1h-36.7V970h101.8v25.1h-36.7v103.6h-28.4V995.1z"/>
			<path fill="#FFFFFF" d="M517.3,1049.1c0,7.6-1.2,14.7-3.5,21.1c-2.3,6.4-5.7,12-10.3,16.7c-4.5,4.7-10.2,8.4-17,11.1
				c-6.8,2.7-14.6,4-23.4,4c-9,0-16.8-1.3-23.6-4c-6.8-2.7-12.4-6.4-17-11.1c-4.5-4.7-8-10.3-10.3-16.7c-2.3-6.4-3.5-13.4-3.5-21.1
				V970h28.4v78c0,4,0.6,7.7,1.9,11.1c1.3,3.4,3.1,6.3,5.4,8.8c2.3,2.5,5.1,4.4,8.3,5.8c3.2,1.4,6.7,2.1,10.5,2.1
				c3.8,0,7.2-0.7,10.4-2.1c3.1-1.4,5.9-3.3,8.2-5.8c2.3-2.5,4.1-5.4,5.4-8.8c1.3-3.4,1.9-7.1,1.9-11.1v-78h28.4V1049.1z"/>
		</g>
		<g>
			<path fill="#FFFFFF" d="M722,970h87.4v26.2h-59.1v24h55.8v26.2h-55.8v26.2h62.3v26.2H722V970z"/>
			<path fill="#FFFFFF" d="M867.4,1031.5L824.9,970h35.6l27.4,45.1l26.4-45.1h34.4l-41.6,60.9l46.5,67.8H918l-31.4-51.8l-30.5,51.8
				h-33.6L867.4,1031.5z"/>
			<path fill="#FFFFFF" d="M998.3,1043.8L949.9,970h35.3l27.3,48.2l28.9-48.2h33.6l-48.3,73.8v54.9h-28.4V1043.8z"/>
		</g>
		
			<line fill="#FFFFFF" stroke="#FFFFFF" stroke-width="8.0998" stroke-linecap="square" stroke-miterlimit="10" x1="219" y1="860.6" x2="1028.2" y2="860.6"/>
		<g>
			<defs>
				<polygon id="SVGID_25_" points="690.9,488.5 596.4,535.7 596.4,441.2 				"/>
			</defs>
			<use xlink:href="#SVGID_25_"  overflow="visible" fill-rule="evenodd" clip-rule="evenodd" fill="#FFFFFF"/>
			<clipPath id="SVGID_26_">
				<use xlink:href="#SVGID_25_"  overflow="visible"/>
			</clipPath>
			<g clip-path="url(#SVGID_26_)">
				<defs>
					<rect id="SVGID_27_" x="-487.9" y="-54.4" width="2227.2" height="1573.9"/>
				</defs>
				<use xlink:href="#SVGID_27_"  overflow="visible" fill="#FFFFFF"/>
				<clipPath id="SVGID_28_">
					<use xlink:href="#SVGID_27_"  overflow="visible"/>
				</clipPath>
				<rect x="595.4" y="440.3" clip-path="url(#SVGID_28_)" fill="#FFFFFF" width="96.4" height="96.4"/>
			</g>
		</g>
		<g>
			<defs>
				<polyline id="SVGID_29_" points="411.3,467.3 411.3,355.1 860.2,355.1 860.2,434.6 				"/>
			</defs>
			<clipPath id="SVGID_30_">
				<use xlink:href="#SVGID_29_"  overflow="visible"/>
			</clipPath>
			<g clip-path="url(#SVGID_30_)">
				<defs>
					<rect id="SVGID_31_" x="-487.9" y="-54.4" width="2227.2" height="1573.9"/>
				</defs>
				<clipPath id="SVGID_32_">
					<use xlink:href="#SVGID_31_"  overflow="visible"/>
				</clipPath>
				<polyline clip-path="url(#SVGID_32_)" fill="none" stroke="#FFFFFF" stroke-width="16.1995" stroke-miterlimit="10" points="
					411.3,467.3 411.3,355.1 860.2,355.1 860.2,434.6 				"/>
			</g>
		</g>
		
			<line fill="none" stroke="#B42B41" stroke-width="8.0998" stroke-linecap="round" stroke-linejoin="round" stroke-miterlimit="10" x1="606.3" y1="276" x2="571.3" y2="205"/>
		
			<line fill="none" stroke="#FFFFFF" stroke-width="8.0998" stroke-linecap="round" stroke-linejoin="round" stroke-miterlimit="10" x1="657.6" y1="272.4" x2="713.5" y2="184.5"/>
		
			<line fill="none" stroke="#FFFFFF" stroke-width="8.0998" stroke-linecap="round" stroke-linejoin="round" stroke-miterlimit="10" x1="606.3" y1="276" x2="571.3" y2="205"/>
		<g>
			<g>
				<g enable-background="new    ">
					<g>
						<g>
							<defs>
								<path id="SVGID_33_" d="M584,1048.3c-0.8-1.2-1.5-2.4-2.4-3.6c-10.8-14.9-19.5-30.7-21.1-49.4c-1.6-18.6,0.9-36.6,11.1-52.8
									c15.2-24.1,45.7-32.3,71.7-19.5c4.7,2.3,9.1,5.2,13.9,7.5c7.2,3.4,11.6,1.2,14-6.4c0.4-1.3,1.9-2.1,2.9-3.2
									c0.4,0.3,0.8,0.6,1.1,1v56.6c-7.4-2.7-12.8-6.2-14.8-14.7c-2.6-11-8.2-20.9-16.4-29c-8.9-8.7-19.3-13.5-31.6-9.5
									c-12.3,4.1-18.2,14.3-19.5,26.5c-1.1,9.4-0.2,19-0.2,28.2c0.6,6.8,1.1,6.7,4.9,13.5c5.2,7.8,9.8,16.1,15.7,23.2
									c14.6,17.8,30.2,34.8,44.8,52.7c14.6,18,26.7,37.6,31,61c4.4,24.3,0.9,46.4-16.7,65.3c-15.6,16.7-54.2,26.8-79.9,6.5
									c-15.5-12.2-18.8-10.8-25.4,7.9h-6.6v-89h6.6c2,9.5,3.6,19.3,6.1,28.9c4.2,16.6,11.3,31.8,23.5,44.1
									c10.6,10.7,23.1,15.6,38.1,11.4c13.2-3.7,21.4-16.6,22.3-33.4c1.2-22.6-6.6-42.3-19.3-60.4c-3.3-4.7-6.9-9.2-10.3-13.8"/>
							</defs>
							<use xlink:href="#SVGID_33_"  overflow="visible" fill-rule="evenodd" clip-rule="evenodd" fill="#FFFFFF"/>
							<clipPath id="SVGID_34_">
								<use xlink:href="#SVGID_33_"  overflow="visible"/>
							</clipPath>
							<g clip-path="url(#SVGID_34_)">
								<defs>
									<rect id="SVGID_35_" x="560.1" y="917" width="130.8" height="296.7"/>
								</defs>
								<use xlink:href="#SVGID_35_"  overflow="visible" fill="#FFFFFF"/>
								<clipPath id="SVGID_36_">
									<use xlink:href="#SVGID_35_"  overflow="visible"/>
								</clipPath>
								<rect x="559.1" y="916.1" clip-path="url(#SVGID_36_)" fill="#FFFFFF" width="132.7" height="298.4"/>
							</g>
						</g>
					</g>
				</g>
			</g>
		</g>
		<g>
			<g>
				<g enable-background="new    ">
					<g>
						<g>
							<defs>
								<path id="SVGID_37_" d="M635.3,1238.7c15.2-0.4,28.1,11.4,28.5,26c0.4,16.2-11.3,29.4-26.5,29.9
									c-16.2,0.5-29.6-11.5-30.1-27C606.6,1251.8,618.9,1239.2,635.3,1238.7"/>
							</defs>
							<use xlink:href="#SVGID_37_"  overflow="visible" fill-rule="evenodd" clip-rule="evenodd" fill="#FFFFFF"/>
							<clipPath id="SVGID_38_">
								<use xlink:href="#SVGID_37_"  overflow="visible"/>
							</clipPath>
							<g clip-path="url(#SVGID_38_)">
								<defs>
									<rect id="SVGID_39_" x="607.1" y="1238.6" width="56.7" height="56.1"/>
								</defs>
								<use xlink:href="#SVGID_39_"  overflow="visible" fill="#FFFFFF"/>
								<clipPath id="SVGID_40_">
									<use xlink:href="#SVGID_39_"  overflow="visible"/>
								</clipPath>
								<rect x="606.2" y="1237.7" clip-path="url(#SVGID_40_)" fill="#FFFFFF" width="58.6" height="57.9"/>
							</g>
						</g>
					</g>
				</g>
			</g>
		</g>
		<g>
			<defs>
				<line id="SVGID_41_" x1="792.2" y1="619.8" x2="463.1" y2="619.8"/>
			</defs>
			<clipPath id="SVGID_42_">
				<use xlink:href="#SVGID_41_"  overflow="visible"/>
			</clipPath>
			<g clip-path="url(#SVGID_42_)">
				<defs>
					<rect id="SVGID_43_" x="-487.9" y="-54.4" width="2227.2" height="1573.9"/>
				</defs>
				<clipPath id="SVGID_44_">
					<use xlink:href="#SVGID_43_"  overflow="visible"/>
				</clipPath>
				<rect x="462.1" y="618.8" clip-path="url(#SVGID_44_)" fill="#D8D9D8" width="331.1" height="2"/>
			</g>
		</g>
		<g>
			<line fill="none" stroke="#FFFFFF" stroke-width="8.0998" stroke-miterlimit="10" x1="792.2" y1="619.8" x2="463.1" y2="619.8"/>
		</g>
		<g>
			<defs>
				<rect id="SVGID_45_" x="621.1" y="640.8" width="30.1" height="15.4"/>
			</defs>
			<use xlink:href="#SVGID_45_"  overflow="visible" fill-rule="evenodd" clip-rule="evenodd" fill="#FFFFFF"/>
			<clipPath id="SVGID_46_">
				<use xlink:href="#SVGID_45_"  overflow="visible"/>
			</clipPath>
			<g clip-path="url(#SVGID_46_)">
				<defs>
					<rect id="SVGID_47_" x="-487.9" y="-54.4" width="2227.2" height="1573.9"/>
				</defs>
				<use xlink:href="#SVGID_47_"  overflow="visible" fill="#FFFFFF"/>
				<clipPath id="SVGID_48_">
					<use xlink:href="#SVGID_47_"  overflow="visible"/>
				</clipPath>
				<rect x="620.1" y="639.8" clip-path="url(#SVGID_48_)" fill="#FFFFFF" width="32" height="17.4"/>
			</g>
		</g>
		<g>
			<defs>
				<rect id="SVGID_49_" x="590.7" y="641.4" width="19.6" height="15.3"/>
			</defs>
			<use xlink:href="#SVGID_49_"  overflow="visible" fill-rule="evenodd" clip-rule="evenodd" fill="#FFFFFF"/>
			<clipPath id="SVGID_50_">
				<use xlink:href="#SVGID_49_"  overflow="visible"/>
			</clipPath>
			<g clip-path="url(#SVGID_50_)">
				<defs>
					<rect id="SVGID_51_" x="-487.9" y="-54.4" width="2227.2" height="1573.9"/>
				</defs>
				<use xlink:href="#SVGID_51_"  overflow="visible" fill="#FFFFFF"/>
				<clipPath id="SVGID_52_">
					<use xlink:href="#SVGID_51_"  overflow="visible"/>
				</clipPath>
				<rect x="589.7" y="640.4" clip-path="url(#SVGID_52_)" fill="#FFFFFF" width="21.6" height="17.3"/>
			</g>
		</g>
		<g>
			<defs>
				<rect id="SVGID_53_" x="661.8" y="641.4" width="19.6" height="15.3"/>
			</defs>
			<use xlink:href="#SVGID_53_"  overflow="visible" fill-rule="evenodd" clip-rule="evenodd" fill="#FFFFFF"/>
			<clipPath id="SVGID_54_">
				<use xlink:href="#SVGID_53_"  overflow="visible"/>
			</clipPath>
			<g clip-path="url(#SVGID_54_)">
				<defs>
					<rect id="SVGID_55_" x="-487.9" y="-54.4" width="2227.2" height="1573.9"/>
				</defs>
				<use xlink:href="#SVGID_55_"  overflow="visible" fill="#FFFFFF"/>
				<clipPath id="SVGID_56_">
					<use xlink:href="#SVGID_55_"  overflow="visible"/>
				</clipPath>
				<rect x="660.8" y="640.4" clip-path="url(#SVGID_56_)" fill="#FFFFFF" width="21.6" height="17.3"/>
			</g>
		</g>
	</g>
</g>
</svg>
